<svg xmlns="http://www.w3.org/2000/svg" xmlns:xlink="http://www.w3.org/1999/xlink" width="500" zoomAndPan="magnify" viewBox="0 0 375 374.999991" height="500" preserveAspectRatio="xMidYMid meet" version="1.0"><defs><clipPath id="29386eca59"><path d="M 96 72 L 283 72 L 283 262 L 96 262 Z M 96 72 " clip-rule="nonzero"/></clipPath><clipPath id="5532626c58"><path d="M 84.890625 166.382812 L 187.246094 64.03125 L 290.128906 166.914062 L 187.773438 269.269531 Z M 84.890625 166.382812 " clip-rule="nonzero"/></clipPath><clipPath id="c2041505a8"><path d="M 84.890625 166.382812 L 187.246094 64.03125 L 290.128906 166.914062 L 187.773438 269.269531 Z M 84.890625 166.382812 " clip-rule="nonzero"/></clipPath></defs><g clip-path="url(#29386eca59)"><g clip-path="url(#5532626c58)"><g clip-path="url(#c2041505a8)"><path fill="#000000" d="M 123.84375 168.492188 L 123.863281 170.804688 L 123.863281 171.035156 C 123.75 178.398438 117.695312 184.375 110.308594 184.355469 C 102.921875 184.339844 96.839844 178.332031 96.691406 170.972656 L 96.691406 170.738281 L 96.675781 168.425781 L 96.671875 162.085938 C 96.65625 154.621094 102.746094 148.53125 110.226562 148.535156 C 117.6875 148.550781 123.824219 154.6875 123.84375 162.152344 Z M 240.507812 180.289062 L 242.753906 180.292969 L 245.335938 180.300781 L 269.019531 180.355469 C 276.484375 180.375 282.578125 174.28125 282.574219 166.804688 C 282.542969 159.328125 276.417969 153.203125 268.957031 153.1875 L 245.273438 153.128906 L 242.6875 153.125 L 240.441406 153.117188 L 226.855469 153.085938 C 219.394531 153.070312 213.300781 159.164062 213.304688 166.640625 L 213.335938 180.222656 L 213.355469 182.640625 L 213.417969 208.90625 C 213.4375 216.371094 219.558594 222.492188 227.035156 222.523438 C 234.5 222.539062 240.605469 216.433594 240.589844 208.96875 L 240.527344 182.703125 Z M 187.71875 72.128906 L 187.730469 72.117188 C 195.195312 72.132812 201.328125 78.269531 201.347656 85.734375 L 201.71875 247.476562 C 201.75 254.953125 195.644531 261.058594 188.167969 261.027344 C 180.703125 261.011719 174.582031 254.886719 174.550781 247.410156 L 174.175781 85.667969 C 174.160156 78.203125 180.253906 72.109375 187.71875 72.128906 Z M 148.976562 110.636719 C 156.441406 110.652344 162.566406 116.777344 162.59375 124.253906 L 162.640625 142.667969 L 162.734375 182.519531 L 162.796875 208.785156 C 162.816406 216.25 156.707031 222.355469 149.246094 222.335938 C 141.765625 222.304688 135.644531 216.183594 135.628906 208.71875 L 135.5625 182.453125 L 135.46875 142.601562 L 135.425781 124.1875 C 135.40625 116.722656 141.515625 110.617188 148.976562 110.636719 Z M 148.976562 110.636719 " fill-opacity="1" fill-rule="evenodd"/></g></g></g></svg>